<?xml version="1.0" encoding="UTF-8" standalone="no"?>
<!-- Created with Inkscape (http://www.inkscape.org/) -->

<svg
   width="130mm"
   height="130mm"
   viewBox="0 0 130 130"
   version="1.1"
   id="svg5"
   inkscape:version="1.1 (c4e8f9ed74, 2021-05-24)"
   sodipodi:docname="header_icon.svg"
   xmlns:inkscape="http://www.inkscape.org/namespaces/inkscape"
   xmlns:sodipodi="http://sodipodi.sourceforge.net/DTD/sodipodi-0.dtd"
   xmlns="http://www.w3.org/2000/svg"
   xmlns:svg="http://www.w3.org/2000/svg">
  <sodipodi:namedview
     id="namedview7"
     pagecolor="#ffffff"
     bordercolor="#666666"
     borderopacity="1.0"
     inkscape:pageshadow="2"
     inkscape:pageopacity="0.0"
     inkscape:pagecheckerboard="0"
     inkscape:document-units="mm"
     showgrid="false"
     inkscape:zoom="0.73673541"
     inkscape:cx="-10.180046"
     inkscape:cy="249.75045"
     inkscape:window-width="1920"
     inkscape:window-height="1007"
     inkscape:window-x="0"
     inkscape:window-y="0"
     inkscape:window-maximized="1"
     inkscape:current-layer="layer1"
     height="130mm" />
  <defs
     id="defs2">
    <rect
       x="286.39862"
       y="431.63394"
       width="213.10229"
       height="276.89725"
       id="rect12469" />
    <rect
       x="308.11603"
       y="465.56741"
       width="176.45412"
       height="267.39587"
       id="rect3773" />
  </defs>
  <g
     inkscape:label="Layer 1"
     inkscape:groupmode="layer"
     id="layer1"
     transform="translate(-55.42222,-82.637121)">
    <path
       id="path1009"
       style="fill:#122027;fill-opacity:1;stroke-width:8.47412"
       d="M 62 0 L 62 244.93359 L 62 489.86719 L 249.05273 489.86719 L 436.10547 489.86719 L 436.10547 302.15625 L 436.10547 114.44531 L 378.94141 57.222656 L 321.7793 0 L 191.88867 0 L 62 0 z M 228.81055 227.10352 L 246.87695 227.10352 L 246.87695 286.67383 C 251.17383 280.09831 256.2194 275.18294 262.01367 271.92773 C 267.87305 268.67253 274.61133 267.04492 282.22852 267.04492 C 294.79362 267.04492 304.29883 270.95117 310.74414 278.76367 C 317.18945 286.51107 320.41211 297.93685 320.41211 313.04102 L 320.41211 379.05664 L 302.44336 379.05664 L 302.44336 313.62695 C 302.44336 303.27539 300.42513 295.52799 296.38867 290.38477 C 292.35221 285.24154 286.29753 282.66992 278.22461 282.66992 C 268.52409 282.66992 260.87435 285.76237 255.27539 291.94727 C 249.67643 298.13216 246.87695 306.56315 246.87695 317.24023 L 246.87695 379.05664 L 228.81055 379.05664 L 228.81055 227.10352 z M 168.45898 354.25195 L 189.06445 354.25195 L 189.06445 379.05664 L 168.45898 379.05664 L 168.45898 354.25195 z "
       transform="matrix(0.26458333,0,0,0.26458333,55.42222,82.637121)" />
    <text
       xml:space="preserve"
       transform="scale(0.26458333)"
       id="text3771"
       style="font-style:normal;font-weight:normal;font-size:200px;line-height:1.25;font-family:sans-serif;white-space:pre;shape-inside:url(#rect3773);fill:#ffffff;fill-opacity:1;stroke:none" />
  </g>
</svg>
