<?xml version="1.0" encoding="UTF-8" standalone="no"?>
<svg
   width="900"
   height="400"
   viewBox="0 0 238.12499 105.83333"
   version="1.1"
   id="svg8"
   sodipodi:docname="crowlogo_inverted.svg"
   inkscape:version="1.1 (c4e8f9ed74, 2021-05-24)"
   inkscape:export-filename="/home/farook/vaiossd/Pictures/CrowLogo.png"
   inkscape:export-xdpi="324.99619"
   inkscape:export-ydpi="324.99619"
   xmlns:inkscape="http://www.inkscape.org/namespaces/inkscape"
   xmlns:sodipodi="http://sodipodi.sourceforge.net/DTD/sodipodi-0.dtd"
   xmlns="http://www.w3.org/2000/svg"
   xmlns:svg="http://www.w3.org/2000/svg"
   xmlns:rdf="http://www.w3.org/1999/02/22-rdf-syntax-ns#"
   xmlns:cc="http://creativecommons.org/ns#"
   xmlns:dc="http://purl.org/dc/elements/1.1/">
  <defs
     id="defs2" />
  <sodipodi:namedview
     id="base"
     pagecolor="#ffffff"
     bordercolor="#666666"
     borderopacity="1.0"
     inkscape:pageopacity="0.0"
     inkscape:pageshadow="2"
     inkscape:zoom="0.35"
     inkscape:cx="281.42857"
     inkscape:cy="511.42857"
     inkscape:document-units="mm"
     inkscape:current-layer="layer1"
     inkscape:document-rotation="0"
     showgrid="false"
     inkscape:window-width="1920"
     inkscape:window-height="1007"
     inkscape:window-x="0"
     inkscape:window-y="0"
     inkscape:window-maximized="1"
     units="px"
     inkscape:pagecheckerboard="0" />
  <metadata
     id="metadata5">
    <rdf:RDF>
      <cc:Work
         rdf:about="">
        <dc:format>image/svg+xml</dc:format>
        <dc:type
           rdf:resource="http://purl.org/dc/dcmitype/StillImage" />
      </cc:Work>
    </rdf:RDF>
  </metadata>
  <g
     inkscape:label="Layer 1"
     inkscape:groupmode="layer"
     id="layer1"
     transform="translate(2.890729,-78.735456)">
    <path
       id="rect51232"
       style="stroke-width:1.621;stroke-linecap:round;stroke-linejoin:round;fill:#ffffff;fill-opacity:1"
       d="m 86.263122,129.89227 c -1.679885,0.94306 -0.970661,50.071 -0.970661,50.071 h 8.67359 c 0,0 -1.146978,-23.39877 0.97066,-22.01299 5.738329,3.75514 18.678879,22.04105 18.678879,22.04105 l 10.82099,0.0233 c 0,0 -22.33706,-23.42311 -21.33927,-25.78171 0.99777,-2.35858 13.45284,-3.56535 14.28699,-5.61353 0.83414,-2.04817 0.74681,-7.53026 0.0119,-9.332 -0.73488,-1.80175 -17.951097,-8.50923 -22.459538,-9.39514 -4.508449,-0.88592 -6.875855,-1.00922 -8.67359,0 z m 8.673589,7.89629 c 0.435027,-0.21177 12.515509,4.68197 12.527659,5.49714 0.0113,0.76226 -12.065069,5.41359 -12.527659,5.04327 -0.327731,-0.26235 -0.43502,-10.32863 0,-10.54041 z"
       sodipodi:nodetypes="sccscczzzzszssz" />
    <path
       id="path55748"
       style="stroke-width:1.50035;stroke-linecap:round;stroke-linejoin:round;fill:#ffffff;fill-opacity:1"
       d="m 214.40962,132.10711 c 0,0 -6.19646,30.36708 -7.43712,30.33831 -1.22676,-0.0284 -7.40908,-29.27248 -7.40908,-29.27248 l -7.84322,0.0207 c 0,0 -4.25108,28.63573 -6.44505,28.48646 -1.9928,-0.13558 -7.20545,-29.39322 -7.20545,-29.39322 l -7.79639,1.91192 11.03502,45.01483 7.88892,1.48481 c 0,0 5.4369,-26.82435 6.66418,-26.78989 1.22731,0.0345 7.42065,26.61016 7.42065,26.61016 l 7.88891,-1.4848 11.03501,-45.01483 z"
       sodipodi:nodetypes="csccscccczcccc" />
    <path
       id="rect53235"
       style="fill:none;stroke:#fefefe;stroke-width:8.65014;stroke-miterlimit:4;stroke-dasharray:none;stroke-opacity:1"
       d="m 128.1657,156.63351 c 0.0252,15.02476 7.0482,20.22602 17.35625,20.23066 10.30804,0.005 17.61679,-6.50768 17.8414,-20.03302 0.2246,-13.52536 -8.11076,-20.48288 -17.43254,-20.41622 -9.32178,0.0666 -17.79031,5.1938 -17.76511,20.21858 z"
       sodipodi:nodetypes="zzzzz" />
    <path
       style="color:#000000;fill:#ffffff;stroke-width:0.669208;-inkscape-stroke:none;fill-opacity:1"
       d="m 75.361766,164.31848 c -1.522517,0.0929 -3.225106,0.23753 -5.059422,0.41007 -14.861309,1.39786 -38.370023,4.6261 -44.831721,-3.01508 -7.259264,-8.58431 -5.992766,-15.11802 -3.7379,-29.04552 2.254865,-13.92751 11.768175,-32.3183 23.453693,-33.61763 11.685519,-1.299327 24.289435,-0.14247 28.381026,1.21309 L 77.417321,85.791987 C 62.828148,82.27312 56.039475,80.867702 37.328615,83.440263 18.617756,86.012824 9.3053305,108.67011 6.7920712,129.55115 c -2.5132504,20.88098 -0.630659,37.59767 5.7039948,44.13904 6.334653,6.54136 43.941662,8.861 64.480651,5.0425 z"
       id="path830"
       sodipodi:nodetypes="csszzcczzzcc" />
    <path
       style="fill:#ffffff;fill-opacity:1;stroke:none;stroke-width:0.150696px;stroke-linecap:butt;stroke-linejoin:miter;stroke-opacity:1"
       d="m 52.770285,159.45785 -1.325495,1.13614 c 0,0 1.379598,1.29845 1.866513,1.86651 0.486919,0.56807 3.056762,4.95033 3.273169,5.70775 0.21641,0.75743 1.136142,0.91974 1.839463,1.7042 0.703326,0.78449 2.109969,1.59601 1.08204,2.40754 -1.027937,0.81154 0.973835,0.35167 0.919732,-0.91972 -0.05411,-1.2714 1.893562,2.40754 0.513964,2.89445 -1.379593,0.48692 0.703322,0.51397 0.973835,0.0541 0.270504,-0.45986 0.405763,-1.29844 0.297562,-2.21817 -0.108205,-0.91974 -1.514856,-2.62395 -1.839468,-2.9215 -0.324607,-0.29757 1.541906,-0.18936 2.05587,0.48691 0.513978,0.67627 0.568071,0.89268 0.189357,1.46075 -0.37871,0.56808 1.487803,-0.45986 0.59513,-1.3796 -0.892688,-0.91972 -0.216416,-0.83858 -1.460759,-1.43369 -1.244344,-0.59513 -1.379598,-0.97385 -2.43458,-0.91973 -1.054986,0.0541 -6.546333,-7.92594 -6.546333,-7.92594 z"
       id="path15574" />
    <path
       style="fill:#ffffff;fill-opacity:1;stroke:none;stroke-width:0.150696px;stroke-linecap:butt;stroke-linejoin:miter;stroke-opacity:1"
       d="m 61.426586,156.42814 -1.568955,0.97384 3.597781,4.0306 c 0,0 1.866513,1.35254 1.487803,2.75918 -0.378714,1.40665 -1.352549,1.92063 -1.352549,1.92063 0,0 0.13525,0.24344 0.568067,0.24344 0.432817,0 0.973835,-1.40663 1.758317,-0.97382 0.784473,0.43282 1.893562,1.51484 2.082919,2.19112 0.189357,0.67628 0.05411,0.83858 0.162303,0.97383 0.108206,0.13526 0.676277,0.13526 0.595121,-0.43281 -0.08115,-0.56807 0.378714,-0.0271 0.486919,0.45986 0.10821,0.48692 0.459862,1.35255 0.405759,2.19113 -0.0541,0.83857 0.486919,1.65011 0.459875,0.43281 -0.02705,-1.21728 0.243455,-2.54278 -0.37871,-3.65187 -0.622174,-1.10909 -0.892687,-2.59688 0.08114,-1.62306 0.973839,0.97383 1.731268,1.08205 2.001776,1.78536 0.270509,0.70333 0.24346,0.86563 0.568067,0.86563 0.324612,0 0.135255,-0.97383 -0.459866,-1.65011 -0.595116,-0.67626 -0.622174,-1.35254 -2.326379,-2.21817 -1.704214,-0.86563 -2.623946,-1.73126 -4.436351,-3.38137 -1.812424,-1.65011 -3.73304,-4.89622 -3.73304,-4.89622 z"
       id="path15576" />
    <path
       style="fill:#000000;fill-opacity:1;stroke:none;stroke-width:0.150696px;stroke-linecap:butt;stroke-linejoin:miter;stroke-opacity:1"
       d="m 55.533489,166.09236 c 0.531307,0.94733 0.967262,1.78287 1.050983,2.07589 0.21641,0.75743 1.136142,0.91974 1.839463,1.7042 0.703326,0.78449 2.109969,1.59601 1.08204,2.40754 -1.027937,0.81154 0.973835,0.35167 0.919732,-0.91972 -0.05411,-1.2714 1.893562,2.40754 0.513964,2.89445 -1.379593,0.48692 0.703322,0.51397 0.973835,0.0541 0.270504,-0.45986 0.405763,-1.29844 0.297562,-2.21817 -0.108205,-0.91974 -1.514856,-2.62395 -1.839468,-2.9215 -0.324607,-0.29757 1.541906,-0.18936 2.05587,0.48691 0.513978,0.67627 0.568071,0.89268 0.189357,1.46075 -0.37871,0.56808 1.487803,-0.45986 0.59513,-1.3796 -0.892688,-0.91972 -0.216416,-0.83858 -1.460759,-1.43369 -1.244344,-0.59513 -1.379598,-0.97384 -2.43458,-0.91973 -0.290776,0.015 -0.918584,-0.58052 -1.675534,-1.45097 z"
       id="path16765"
       sodipodi:nodetypes="cssssssssssssscc" />
    <path
       style="fill:#000000;fill-opacity:1;stroke:none;stroke-width:0.150696px;stroke-linecap:butt;stroke-linejoin:miter;stroke-opacity:1"
       d="m 65.263268,165.22329 c 0.194353,3.9e-4 0.291031,0.0149 0.484578,0.0788 0.564847,0.18634 2.110365,1.76478 2.252123,2.27108 0.189357,0.67628 0.05411,0.83858 0.162303,0.97383 0.108206,0.13526 0.676277,0.13526 0.595121,-0.43282 -0.08115,-0.56806 0.378714,-0.0271 0.486919,0.45987 0.10821,0.48691 0.459862,1.35254 0.405759,2.19113 -0.0541,0.83857 0.313763,1.62347 0.459875,0.43281 0.148298,-1.20852 0.243455,-2.54277 -0.37871,-3.65187 -0.622174,-1.10909 -0.892687,-2.59689 0.08114,-1.62306 0.973839,0.97383 1.731268,1.08204 2.001776,1.78536 0.270509,0.70333 0.24346,0.86563 0.568067,0.86563 0.324612,0 0.135255,-0.97383 -0.459866,-1.65011 -0.595116,-0.67626 -0.473424,-1.27723 -2.177629,-2.14286 z"
       id="path16767"
       sodipodi:nodetypes="csssssssssssscc" />
    <path
       id="path7288"
       style="fill:#ffffff;fill-opacity:1;stroke:none;stroke-width:0.14952px;stroke-linecap:butt;stroke-linejoin:miter;stroke-opacity:1"
       d="m 49.18396,111.42134 c -1.800635,-0.0245 -5.26385,0.56015 -5.867743,1.66729 -0.644159,1.18095 -0.155808,1.17068 -0.155808,1.17068 0,0 0.09733,-0.0339 0.187346,-0.0614 0.02378,-0.0261 0.02481,-0.0554 0.03436,-0.076 0.02875,-0.062 0.09717,-0.1904 0.336564,-0.33445 0.312033,-0.18776 0.872977,-0.3496 1.664461,-0.30102 h 2.41e-4 c 0.78943,0.0485 2.533815,0.30776 4.087014,0.56604 1.553342,0.25829 2.875385,0.47236 2.875385,0.47236 0.04495,0.006 0.143795,0.10749 0.08567,0.26878 -0.0058,0.0327 -0.06495,-0.002 -0.214412,-0.0993 -0.06614,-0.0229 -1.213381,-0.26531 -2.765708,-0.52344 -1.552327,-0.25813 -3.30239,-0.52923 -4.075718,-0.56439 -0.771201,-0.0351 -1.253838,0.11807 -1.525598,0.31868 -0.153775,0.11351 -0.228149,0.2138 -0.224063,0.25301 0.0041,0.0392 0.763976,0.84306 0.763976,0.84306 0,0 4.729649,0.87015 6.481561,1.60397 0.255147,0.10687 2.364992,3.0533 2.555296,4.88112 0.190027,1.82509 0.08874,3.0699 -0.662772,4.1435 -0.75152,1.07358 -3.006044,3.9722 -5.045868,5.26051 -2.03982,1.28832 -7.622632,22.653 -6.763757,24.37076 0.858876,1.71774 1.610367,0.1072 1.503004,1.1808 -0.107358,1.07358 -1.180964,5.15332 -1.39568,6.87108 -0.21472,1.71775 0.214756,6.01209 -0.107324,7.19305 -0.322074,1.18096 -1.39568,4.72366 -1.39568,4.72366 l 11.165447,0.53685 2.576478,-7.7299 c 0,0 2.68414,-7.40772 3.113569,-8.05188 0.429438,-0.64417 5.904818,-0.96623 8.374084,-2.14718 0.386184,-0.1847 2.247128,-2.12197 2.271453,-0.852 0.02145,1.12014 -0.80722,4.11567 -0.499567,4.18571 0.265174,0.0604 1.984492,-5.14965 2.216279,-4.73504 0.368307,0.65881 -0.329862,3.69047 0.01675,3.54411 0.292186,-0.12338 2.360611,-5.96434 2.758609,-6.6518 0.267772,-0.46251 1.352696,3.30086 1.803794,2.38725 0.297275,-0.60207 -0.01911,-6.23822 0.174166,-5.80208 0.343977,0.77626 0.716858,0.003 0.684425,-0.37704 -0.1192,-1.39704 0.503605,1.2942 0.632411,1.077 0.156555,-0.264 -0.06427,-2.07035 0.08261,-2.35477 0.09703,-0.18785 0.302823,0.0275 0.392109,-0.17652 0.07237,-0.16541 -0.230366,-2.42098 -0.160751,-2.57954 0.365525,-0.83251 1.0931,-1.05675 1.222458,-1.72942 0.276707,-1.43889 0.612145,-4.71323 -1.730598,-7.65294 -0.154852,-0.1943 -0.01998,-0.41678 -0.100969,-1.07512 -0.20216,-1.64276 -0.836217,-2.55634 -1.213983,-3.12299 -0.858876,-1.28831 -1.034214,-0.70998 -2.322527,-2.42773 -1.288308,-1.71774 -2.14702,-0.9661 -1.9323,-2.57648 0.03143,-0.23549 0.28671,-1.26106 0.146864,-2.26862 -0.06782,-0.48855 -0.633083,-1.13463 -0.588163,-1.37497 0.07731,-0.41364 0.992454,1.03201 0.945674,0.63288 -0.07976,-0.68054 -0.815421,-1.13673 -0.917901,-1.64563 -0.06656,-0.33058 0.88395,0.20012 0.657123,-0.0852 -0.664175,-0.83545 -1.153015,-1.72183 -1.39168,-2.40373 -0.751521,-2.14718 -3.361144,-6.81149 -6.259852,-7.67036 -2.898695,-0.85888 -3.921434,-0.55656 -6.548874,-0.4027 -0.509915,0.0299 -1.43137,0.31166 -1.666814,0.30455 -0.644036,-0.0194 -2.486166,-0.49098 -3.938503,-0.58981 -0.103926,-0.007 -0.216521,-0.0115 -0.336564,-0.0132 z"
       sodipodi:nodetypes="ssccssssscccssszcsssssssscccssssssssscsssssscsscssssssscssss" />
    <path
       style="fill:none;fill-opacity:1;stroke:#000000;stroke-width:0.421764;stroke-linecap:butt;stroke-linejoin:miter;stroke-miterlimit:4;stroke-dasharray:none;stroke-dashoffset:0;stroke-opacity:1"
       d="m 56.347762,114.81929 c 0.161825,0.10884 0.335437,0.26186 0.591376,0.25596 0.255976,-0.006 0.976809,-0.26479 0.967991,-0.59138 -0.009,-0.32658 -0.194171,-0.60901 -0.408951,-0.70612 -0.214776,-0.0971 -0.550714,-0.0673 -0.724035,-0.0349 -0.173348,0.0322 -0.455781,0.26752 -0.544051,0.39991 -0.08826,0.13237 -0.04418,0.56783 0.11767,0.67669 z"
       id="path19231"
       sodipodi:nodetypes="scssccs" />
    <ellipse
       style="fill:#000000;fill-opacity:1;stroke:none;stroke-width:0.260928;stroke-linecap:round;stroke-miterlimit:4;stroke-dasharray:none;stroke-dashoffset:0"
       id="path871"
       cx="-10.937903"
       cy="127.09028"
       rx="0.50466883"
       ry="0.28456745"
       transform="rotate(-31.358267)" />
    <path
       style="fill:none;stroke:none;stroke-width:0.14952px;stroke-linecap:butt;stroke-linejoin:miter;stroke-opacity:1"
       d="m 44.389921,115.02116 c 0,0 4.831171,0.75152 6.119483,2.1472 1.288312,1.39567 2.791337,2.57662 2.57662,4.40172 -0.214721,1.82511 0.429438,3.00606 -0.322074,4.07967 -0.751517,1.07358 -3.006063,3.97228 -5.045887,5.26059 -2.039829,1.28831 -7.622516,22.65282 -6.763641,24.37057 0.858874,1.71774 1.610396,0.10735 1.503033,1.18095 -0.107358,1.07358 -1.180954,5.15325 -1.395671,6.87099 -0.214721,1.71775 0.214717,6.01212 -0.107362,7.19307 -0.322075,1.18096 -1.395667,4.72381 -1.395667,4.72381 l 11.165366,0.5368 2.57662,-7.72987 c 0,0 2.683983,-7.40778 3.11342,-8.05194 0.429438,-0.64417 5.904767,-0.96624 8.374029,-2.14719 0.386179,-0.1847 2.247326,-2.12188 2.271656,-0.85191 0.02145,1.12014 -1.801065,5.44911 -1.437061,5.54899 0.375712,0.1031 2.349547,-4.82589 2.581334,-4.41129 0.368312,0.65882 -0.247513,3.75415 0.248173,3.39069 0.738355,-0.5414 2.701532,-7.49811 3.099534,-8.18557 0.267767,-0.46251 1.352722,3.30089 1.803821,2.38728 0.297271,-0.60206 -0.01908,-6.23809 0.174191,-5.80195 0.343972,0.77626 0.716747,0.003 0.684315,-0.3771 -0.1192,-1.39703 0.503735,1.29404 0.63254,1.07683 0.15656,-0.264 -0.06434,-2.07033 0.08254,-2.35476 0.09702,-0.18785 0.302732,0.0277 0.392023,-0.17632 0.07237,-0.16542 -0.230316,-2.42104 -0.160696,-2.5796 0.36552,-0.83251 1.093075,-1.05669 1.222427,-1.72935 0.276712,-1.43889 0.612072,-4.7133 -1.730671,-7.65301 -0.154852,-0.1943 0.363352,-0.6248 0.303944,-0.85138 -0.584768,-2.23024 -0.879494,-3.38266 -1.257256,-3.9493 -0.85887,-1.28831 -1.39567,-0.10736 -2.683983,-1.8251 -1.288308,-1.71775 -2.147187,-0.96625 -1.932466,-2.57663 0.03143,-0.2355 0.286691,-1.26102 0.14685,-2.26858 -0.06782,-0.48855 -0.632868,-1.1346 -0.587947,-1.37494 0.07731,-0.41364 0.992317,1.03207 0.945533,0.63294 -0.07975,-0.68054 -0.815425,-1.13672 -0.917906,-1.64562 -0.06656,-0.33058 0.88397,0.20005 0.657148,-0.0853 -0.664175,-0.83544 -1.153003,-1.72174 -1.391667,-2.40363 -0.751521,-2.14719 -3.361098,-6.8116 -6.259802,-7.67048 -2.898699,-0.85887 -3.921467,-0.55646 -6.548911,-0.4026 -1.735895,0.10165 -3.548997,-0.14554 -5.605391,-0.28547 -1.662818,-0.11314 -5.559983,0.47335 -6.204137,1.6543 -0.644159,1.18096 -0.156005,1.1706 -0.156005,1.1706 0,0 0.264793,-0.0941 0.322635,-0.0949 0.275738,-0.004 0.906961,0.85675 0.906961,0.85675 z"
       id="path3379"
       sodipodi:nodetypes="csssssssscccsssssssssssssssssssssssssssssscsc" />
  </g>
</svg>
