<?xml version="1.0" encoding="UTF-8" standalone="no"?>
<!-- Created with Inkscape (http://www.inkscape.org/) -->

<svg
   width="202mm"
   height="202mm"
   viewBox="0 0 202 202"
   version="1.1"
   id="svg13908"
   inkscape:version="1.1 (c4e8f9ed74, 2021-05-24)"
   sodipodi:docname="websocket_icon.svg"
   xmlns:inkscape="http://www.inkscape.org/namespaces/inkscape"
   xmlns:sodipodi="http://sodipodi.sourceforge.net/DTD/sodipodi-0.dtd"
   xmlns="http://www.w3.org/2000/svg"
   xmlns:svg="http://www.w3.org/2000/svg">
  <sodipodi:namedview
     id="namedview13910"
     pagecolor="#ffffff"
     bordercolor="#666666"
     borderopacity="1.0"
     inkscape:pageshadow="2"
     inkscape:pageopacity="0.0"
     inkscape:pagecheckerboard="0"
     inkscape:document-units="mm"
     showgrid="false"
     inkscape:zoom="0.73673541"
     inkscape:cx="158.13004"
     inkscape:cy="343.40687"
     inkscape:window-width="1920"
     inkscape:window-height="1007"
     inkscape:window-x="0"
     inkscape:window-y="0"
     inkscape:window-maximized="1"
     inkscape:current-layer="layer1"
     width="201.77914mm" />
  <defs
     id="defs13905" />
  <g
     inkscape:label="Layer 1"
     inkscape:groupmode="layer"
     id="layer1"
     transform="translate(-4.4986958,-69.044219)">
    <path
       style="fill:#122027;stroke-width:0.0841212;fill-opacity:1"
       d="m 69.265523,230.77706 -14.111288,-14.11148 8.832818,-8.83251 8.832808,-8.83251 L 51.116516,177.2971 29.41317,155.59363 v -12.26062 -12.26062 h 12.534076 12.534076 v 7.08736 7.08737 l 9.169279,9.16899 9.169279,9.16899 13.396176,-13.39618 13.396175,-13.39617 -9.168982,-9.16928 -9.169,-9.16932 H 55.360589 29.44692 L 16.972808,105.92001 4.4986958,93.385901 H 48.103109 91.707532 l 3.746995,3.764422 c 2.060862,2.070436 11.842143,11.897187 21.736193,21.837197 l 17.9892,18.0727 -4.40824,4.40884 -4.40823,4.40882 8.60118,8.60149 8.60117,8.60148 v 17.74937 17.74937 l -17.49722,-17.49708 -17.49722,-17.49705 -4.45581,4.45833 -4.455823,4.45834 17.460153,17.51827 17.46015,17.51826 H 116.84371 99.107375 l -8.622061,-8.62237 -8.622051,-8.62235 -4.43771,4.43711 -4.437711,4.43712 10.452037,10.45228 10.452028,10.45229 h 43.721543 43.72154 l 10.28448,10.23153 c 5.65645,5.62734 11.2686,11.2109 12.47142,12.4079 l 2.18695,2.17636 H 144.82733 83.376811 Z M 156.184,182.57579 v -24.87875 l -10.45194,-10.4522 -10.45193,-10.45218 8.83245,-8.83275 c 4.85784,-4.85802 8.87197,-8.83278 8.92029,-8.83278 0.0483,0 6.41741,6.33451 14.15356,14.07664 l 14.06572,14.07661 v 30.08708 30.08708 H 168.71808 156.184 Z"
       id="path13999" />
  </g>
</svg>
