<?xml version="1.0" encoding="UTF-8" standalone="no"?>
<svg
   width="900"
   height="400"
   viewBox="0 0 238.12499 105.83333"
   version="1.1"
   id="svg8"
   sodipodi:docname="crowlogo.svg"
   inkscape:version="1.1 (c4e8f9ed74, 2021-05-24)"
   inkscape:export-filename="/home/farook/vaiossd/Pictures/CrowLogo.png"
   inkscape:export-xdpi="324.99619"
   inkscape:export-ydpi="324.99619"
   xmlns:inkscape="http://www.inkscape.org/namespaces/inkscape"
   xmlns:sodipodi="http://sodipodi.sourceforge.net/DTD/sodipodi-0.dtd"
   xmlns="http://www.w3.org/2000/svg"
   xmlns:svg="http://www.w3.org/2000/svg"
   xmlns:rdf="http://www.w3.org/1999/02/22-rdf-syntax-ns#"
   xmlns:cc="http://creativecommons.org/ns#"
   xmlns:dc="http://purl.org/dc/elements/1.1/">
  <defs
     id="defs2" />
  <sodipodi:namedview
     id="base"
     pagecolor="#ffffff"
     bordercolor="#666666"
     borderopacity="1.0"
     inkscape:pageopacity="0.0"
     inkscape:pageshadow="2"
     inkscape:zoom="0.49497475"
     inkscape:cx="196.97975"
     inkscape:cy="329.30973"
     inkscape:document-units="mm"
     inkscape:current-layer="layer1"
     inkscape:document-rotation="0"
     showgrid="false"
     inkscape:window-width="1920"
     inkscape:window-height="1007"
     inkscape:window-x="0"
     inkscape:window-y="0"
     inkscape:window-maximized="1"
     units="px"
     inkscape:pagecheckerboard="0" />
  <metadata
     id="metadata5">
    <rdf:RDF>
      <cc:Work
         rdf:about="">
        <dc:format>image/svg+xml</dc:format>
        <dc:type
           rdf:resource="http://purl.org/dc/dcmitype/StillImage" />
        <dc:title />
      </cc:Work>
    </rdf:RDF>
  </metadata>
  <g
     inkscape:label="Layer 1"
     inkscape:groupmode="layer"
     id="layer1"
     transform="translate(2.890729,-78.735456)">
    <path
       id="rect51232"
       style="stroke-width:1.621;stroke-linecap:round;stroke-linejoin:round"
       d="m 86.263122,129.89227 c -1.679885,0.94306 -0.970661,50.071 -0.970661,50.071 h 8.67359 c 0,0 -1.146978,-23.39877 0.97066,-22.01299 5.738329,3.75514 18.678879,22.04105 18.678879,22.04105 l 10.82099,0.0233 c 0,0 -22.33706,-23.42311 -21.33927,-25.78171 0.99777,-2.35858 13.45284,-3.56535 14.28699,-5.61353 0.83414,-2.04817 0.74681,-7.53026 0.0119,-9.332 -0.73488,-1.80175 -17.951097,-8.50923 -22.459538,-9.39514 -4.508449,-0.88592 -6.875855,-1.00922 -8.67359,0 z m 8.673589,7.89629 c 0.435027,-0.21177 12.515509,4.68197 12.527659,5.49714 0.0113,0.76226 -12.065069,5.41359 -12.527659,5.04327 -0.327731,-0.26235 -0.43502,-10.32863 0,-10.54041 z"
       sodipodi:nodetypes="sccscczzzzszssz" />
    <path
       id="path55748"
       style="stroke-width:1.50035;stroke-linecap:round;stroke-linejoin:round"
       d="m 214.40962,132.10711 c 0,0 -6.19646,30.36708 -7.43712,30.33831 -1.22676,-0.0284 -7.40908,-29.27248 -7.40908,-29.27248 l -7.84322,0.0207 c 0,0 -4.25108,28.63573 -6.44505,28.48646 -1.9928,-0.13558 -7.20545,-29.39322 -7.20545,-29.39322 l -7.79639,1.91192 11.03502,45.01483 7.88892,1.48481 c 0,0 5.4369,-26.82435 6.66418,-26.78989 1.22731,0.0345 7.42065,26.61016 7.42065,26.61016 l 7.88891,-1.4848 11.03501,-45.01483 z"
       sodipodi:nodetypes="csccscccczcccc" />
    <path
       id="rect53235"
       style="fill:none;stroke:#000000;stroke-width:8.65014;stroke-miterlimit:4;stroke-dasharray:none"
       d="m 128.1657,156.63351 c 0.0252,15.02476 7.0482,20.22602 17.35625,20.23066 10.30804,0.005 17.61679,-6.50768 17.8414,-20.03302 0.2246,-13.52536 -8.11076,-20.48288 -17.43254,-20.41622 -9.32178,0.0666 -17.79031,5.1938 -17.76511,20.21858 z"
       sodipodi:nodetypes="zzzzz" />
    <path
       style="color:#000000;fill:#000000;stroke-width:0.669208;-inkscape-stroke:none"
       d="m 75.361766,164.31848 c -1.522517,0.0929 -3.225106,0.23753 -5.059422,0.41007 -14.861309,1.39786 -38.370023,4.6261 -44.831721,-3.01508 -7.259264,-8.58431 -5.992766,-15.11802 -3.7379,-29.04552 2.254865,-13.92751 11.768175,-32.3183 23.453693,-33.61763 11.685519,-1.299327 24.289435,-0.14247 28.381026,1.21309 L 77.417321,85.791987 C 62.828148,82.27312 56.039475,80.867702 37.328615,83.440263 18.617756,86.012824 9.3053305,108.67011 6.7920712,129.55115 c -2.5132504,20.88098 -0.630659,37.59767 5.7039948,44.13904 6.334653,6.54136 43.941662,8.861 64.480651,5.0425 z"
       id="path830"
       sodipodi:nodetypes="csszzcczzzcc" />
    <g
       id="g10108"
       transform="matrix(0.45544811,0,0,0.45544811,-15.928506,65.153935)">
      <path
         style="fill:#000000;fill-opacity:1;stroke:none;stroke-width:0.330875px;stroke-linecap:butt;stroke-linejoin:miter;stroke-opacity:1"
         d="m 150.8378,207.05744 -2.91031,2.49455 c 0,0 3.0291,2.85092 4.09819,4.09818 1.0691,1.24727 6.71155,10.86915 7.1867,12.53216 0.47516,1.66304 2.49456,2.01942 4.0388,3.74182 1.54425,1.72244 4.63273,3.50426 2.37577,5.28609 -2.25698,1.78184 2.13819,0.77214 2.0194,-2.01939 -0.11881,-2.79153 4.15758,5.28609 1.12848,6.35518 -3.02909,1.06909 1.54424,1.12848 2.13819,0.11879 0.59393,-1.00969 0.89091,-2.85092 0.65334,-4.87032 -0.23758,-2.01942 -3.32608,-5.76124 -4.03881,-6.41455 -0.71272,-0.65336 3.38547,-0.41578 4.51395,1.06908 1.12851,1.48483 1.24728,1.95999 0.41576,3.20727 -0.83151,1.2473 3.26668,-1.00969 1.30669,-3.0291 -1.96002,-2.01938 -0.47517,-1.84122 -3.2073,-3.14786 -2.73213,-1.3067 -3.0291,-2.13822 -5.34546,-2.01941 -2.31637,0.1188 -14.37339,-17.40249 -14.37339,-17.40249 z"
         id="path15574" />
      <path
         style="fill:#000000;fill-opacity:1;stroke:none;stroke-width:0.330875px;stroke-linecap:butt;stroke-linejoin:miter;stroke-opacity:1"
         d="m 169.84392,200.40528 -3.44486,2.13819 7.89943,8.84975 c 0,0 4.09819,2.96969 3.26668,6.05817 -0.83152,3.08849 -2.96971,4.21701 -2.96971,4.21701 0,0 0.29696,0.53452 1.24727,0.53452 0.95031,0 2.13819,-3.08847 3.86063,-2.13817 1.72242,0.95031 4.15758,3.32604 4.57334,4.81091 0.41576,1.48487 0.11881,1.84123 0.35636,2.13819 0.23758,0.29698 1.48486,0.29698 1.30667,-0.95031 -0.17817,-1.24727 0.83152,-0.0594 1.0691,1.00969 0.23759,1.0691 1.00969,2.96972 0.8909,4.81093 -0.11879,1.84121 1.0691,3.62305 1.00972,0.95031 -0.0594,-2.67272 0.53454,-5.58303 -0.83151,-8.0182 -1.36607,-2.43517 -1.96002,-5.70182 0.17816,-3.56365 2.1382,2.13817 3.80124,2.37578 4.39518,3.92 0.59394,1.54427 0.53455,1.90061 1.24727,1.90061 0.71273,0 0.29697,-2.13818 -1.0097,-3.62305 -1.30666,-1.48482 -1.36607,-2.96969 -5.10789,-4.8703 -3.74184,-1.90061 -5.76124,-3.80122 -9.74063,-7.42426 -3.97943,-3.62305 -8.19641,-10.75034 -8.19641,-10.75034 z"
         id="path15576" />
      <path
         style="fill:#fefefe;fill-opacity:1;stroke:none;stroke-width:0.330875px;stroke-linecap:butt;stroke-linejoin:miter;stroke-opacity:1"
         d="m 156.9048,221.62443 c 1.16656,2.08 2.12376,3.91453 2.30758,4.5579 0.47516,1.66304 2.49456,2.01942 4.0388,3.74182 1.54425,1.72244 4.63273,3.50426 2.37577,5.28609 -2.25698,1.78184 2.13819,0.77214 2.0194,-2.01939 -0.11881,-2.79153 4.15758,5.28609 1.12848,6.35518 -3.02909,1.06909 1.54424,1.12848 2.13819,0.11879 0.59393,-1.00969 0.89091,-2.85092 0.65334,-4.87032 -0.23758,-2.01942 -3.32608,-5.76124 -4.03881,-6.41455 -0.71272,-0.65336 3.38547,-0.41578 4.51395,1.06908 1.12851,1.48483 1.24728,1.95999 0.41576,3.20727 -0.83151,1.2473 3.26668,-1.00969 1.30669,-3.0291 -1.96002,-2.01938 -0.47517,-1.84122 -3.2073,-3.14786 -2.73213,-1.3067 -3.0291,-2.13821 -5.34546,-2.01941 -0.63844,0.0329 -2.01688,-1.2746 -3.67887,-3.1858 z"
         id="path16765"
         sodipodi:nodetypes="cssssssssssssscc" />
      <path
         style="fill:#fefefe;fill-opacity:1;stroke:none;stroke-width:0.330875px;stroke-linecap:butt;stroke-linejoin:miter;stroke-opacity:1"
         d="m 178.26789,219.71627 c 0.42673,8.5e-4 0.639,0.0327 1.06396,0.17299 1.2402,0.40914 4.6336,3.87481 4.94485,4.98647 0.41576,1.48486 0.11881,1.84122 0.35636,2.13817 0.23758,0.297 1.48486,0.297 1.30667,-0.9503 -0.17817,-1.24726 0.83152,-0.0594 1.0691,1.00969 0.23759,1.06909 1.00969,2.96971 0.8909,4.81094 -0.11879,1.8412 0.68891,3.56455 1.00972,0.9503 0.32561,-2.65347 0.53454,-5.58302 -0.83151,-8.01819 -1.36607,-2.43517 -1.96002,-5.70184 0.17816,-3.56366 2.1382,2.13818 3.80124,2.37578 4.39518,3.92 0.59394,1.54427 0.53455,1.90061 1.24727,1.90061 0.71273,0 0.29697,-2.13818 -1.0097,-3.62304 -1.30666,-1.48483 -1.03947,-2.80434 -4.78129,-4.70495 z"
         id="path16767"
         sodipodi:nodetypes="csssssssssssscc" />
      <path
         id="path7288"
         style="fill:#000000;fill-opacity:1;stroke:none;stroke-width:1.24079px;stroke-linecap:butt;stroke-linejoin:miter;stroke-opacity:1"
         d="m 540.33594,383.94922 c -14.94254,-0.20305 -43.68196,4.64832 -48.69336,13.83594 -5.34554,9.80012 -1.29297,9.71484 -1.29297,9.71484 0,0 0.8077,-0.28159 1.55469,-0.50977 0.19731,-0.21631 0.20586,-0.45983 0.28515,-0.63085 0.23859,-0.51464 0.80638,-1.58001 2.79297,-2.7754 2.5894,-1.55814 7.24439,-2.90119 13.8125,-2.49804 h 0.002 c 6.55107,0.40265 21.02682,2.55398 33.91601,4.69726 12.89038,2.14345 23.86133,3.91992 23.86133,3.91992 0.37304,0.0474 1.19328,0.89199 0.71094,2.23047 -0.0485,0.27141 -0.53901,-0.0127 -1.7793,-0.82421 -0.54883,-0.18974 -10.06922,-2.20171 -22.95117,-4.34376 -12.88196,-2.14208 -27.40482,-4.39181 -33.82227,-4.68359 -6.3998,-0.2911 -10.40495,0.97984 -12.66015,2.64453 -1.2761,0.94199 -1.89329,1.77426 -1.85938,2.09961 0.0339,0.32536 6.33984,6.9961 6.33984,6.9961 0,0 39.2489,7.22097 53.78711,13.31054 2.11733,0.88687 19.62584,25.33779 21.20508,40.50586 1.57693,15.14555 0.73641,25.47551 -5.5,34.38477 -6.23648,8.90914 -24.9456,32.96326 -41.87304,43.65429 -16.92741,10.69108 -63.25627,187.98549 -56.12891,202.24024 7.12736,14.25468 13.3636,0.88961 12.47265,9.79883 -0.89091,8.90914 -9.80021,42.76481 -11.58203,57.01953 -1.78185,14.25475 1.78215,49.89128 -0.89062,59.6914 -2.67273,9.80017 -11.58203,39.19922 -11.58203,39.19922 l 92.65625,4.45508 21.38086,-64.14648 c 0,0 22.27428,-61.47279 25.83789,-66.81836 3.56368,-5.34562 49.00102,-8.01824 69.49218,-17.81836 3.20474,-1.53271 18.64775,-17.60907 18.84961,-7.07031 0.17802,9.29552 -6.6987,34.15384 -4.14565,34.73511 2.20054,0.50101 16.46827,-42.73429 18.39175,-39.29371 3.05639,5.46716 -2.73735,30.6253 0.13898,29.41075 2.4247,-1.02385 19.58949,-49.49495 22.89227,-55.19981 2.2221,-3.83811 11.22532,27.39209 14.96875,19.81055 2.46693,-4.99624 -0.15857,-51.76775 1.44531,-48.14844 2.85449,6.44179 5.94883,0.0231 5.67969,-3.12891 -0.98918,-11.59328 4.17916,10.73996 5.24805,8.9375 1.29917,-2.19084 -0.53332,-17.18074 0.68554,-19.54101 0.80519,-1.55891 2.51297,0.22857 3.25391,-1.46485 0.6006,-1.37268 -1.91169,-20.09044 -1.33399,-21.40625 3.0333,-6.90856 9.07107,-8.76946 10.14454,-14.35156 2.29625,-11.94062 5.07988,-39.1127 -14.36133,-63.50781 -1.28504,-1.61242 -0.16578,-3.45865 -0.83789,-8.92188 -1.67762,-13.63237 -6.93933,-21.21375 -10.07422,-25.91601 -7.12736,-10.69108 -8.5824,-5.89177 -19.27344,-20.14649 -10.691,-14.25467 -17.81701,-8.0172 -16.03516,-21.38086 0.26079,-1.95428 2.37926,-10.46495 1.21875,-18.82617 -0.56277,-4.05418 -5.25363,-9.4157 -4.88086,-11.41015 0.64154,-3.43253 8.23586,8.56414 7.84766,5.25195 -0.66187,-5.64741 -6.76676,-9.43312 -7.61719,-13.65625 -0.55237,-2.74326 7.33545,1.66069 5.45313,-0.70703 -5.51165,-6.9329 -9.56828,-14.28856 -11.54883,-19.94727 -6.23649,-17.81835 -27.89239,-56.52498 -51.94727,-63.65234 -24.05476,-7.12736 -32.54194,-4.6186 -54.3457,-3.3418 -4.23152,0.24794 -11.8782,2.58634 -13.83203,2.52734 -5.34452,-0.16138 -20.6314,-4.07444 -32.68359,-4.89453 -0.86243,-0.0587 -1.7968,-0.0958 -2.79297,-0.10937 z"
         transform="matrix(0.26458333,0,0,0.26458333,-3.6166667e-4,0)"
         sodipodi:nodetypes="ssccssssscccssszcsssssssscccssssssssscsssssscsscssssssscssss" />
      <path
         style="fill:none;fill-opacity:1;stroke:#ffffff;stroke-width:0.926042;stroke-linecap:butt;stroke-linejoin:miter;stroke-miterlimit:4;stroke-dasharray:none;stroke-dashoffset:0;stroke-opacity:1"
         d="m 158.69265,109.04723 c 0.35531,0.23898 0.7365,0.57494 1.29845,0.562 0.56203,-0.0124 2.14472,-0.58138 2.12536,-1.29846 -0.0198,-0.71706 -0.42633,-1.33717 -0.89791,-1.55039 -0.47157,-0.21319 -1.20917,-0.14781 -1.58972,-0.0767 -0.38061,0.0708 -1.00073,0.58738 -1.19454,0.87807 -0.19379,0.29064 -0.097,1.24674 0.25836,1.48577 z"
         id="path19231"
         sodipodi:nodetypes="scssccs" />
      <ellipse
         style="fill:#ffffff;fill-opacity:1;stroke:none;stroke-width:0.572904;stroke-linecap:round;stroke-miterlimit:4;stroke-dasharray:none;stroke-dashoffset:0"
         id="path871"
         cx="80.292877"
         cy="175.08554"
         rx="1.108071"
         ry="0.6248076"
         transform="rotate(-31.358267)" />
      <path
         style="fill:none;stroke:none;stroke-width:0.328292px;stroke-linecap:butt;stroke-linejoin:miter;stroke-opacity:1"
         d="m 132.43754,109.49047 c 0,0 10.60751,1.65006 13.43618,4.71448 2.82867,3.06438 6.12877,5.65732 5.65733,9.66459 -0.47145,4.00727 0.94289,6.60022 -0.70716,8.95747 -1.65006,2.3572 -6.60023,8.72171 -11.07895,11.55038 -4.47873,2.82866 -16.7363,49.73742 -14.85052,53.50898 1.88578,3.77155 3.53585,0.23571 3.30012,2.59295 -0.23572,2.3572 -2.59295,11.31467 -3.06439,15.08622 -0.47145,3.77156 0.47144,13.20044 -0.23573,15.79339 -0.70716,2.59296 -3.06438,10.37178 -3.06438,10.37178 l 24.51512,1.17861 5.65733,-16.972 c 0,0 5.89306,-16.26482 6.83595,-17.67917 0.94289,-1.41436 12.96474,-2.1215 18.38635,-4.71445 0.84791,-0.40553 4.93432,-4.65888 4.98774,-1.87049 0.0471,2.45943 -3.95449,11.96428 -3.15527,12.18359 0.82493,0.22636 5.15876,-10.59591 5.66768,-9.6856 0.80868,1.44652 -0.54345,8.24275 0.5449,7.44472 1.62116,-1.18872 5.93159,-16.46315 6.80546,-17.97256 0.58792,-1.0155 2.97009,7.24758 3.96054,5.24162 0.6527,-1.32192 -0.0419,-13.6966 0.38246,-12.739 0.75524,1.70439 1.57372,0.006 1.50251,-0.82797 -0.26172,-3.06738 1.10602,2.84123 1.38883,2.36433 0.34375,-0.57966 -0.14126,-4.54571 0.18124,-5.1702 0.21303,-0.41246 0.66469,0.0609 0.86074,-0.38715 0.15891,-0.36319 -0.50569,-5.31572 -0.35283,-5.66386 0.80255,-1.82789 2.4,-2.32012 2.68401,-3.79704 0.60756,-3.15929 1.34389,-10.34871 -3.79993,-16.80325 -0.34,-0.42662 0.79779,-1.37184 0.66735,-1.86932 -1.28394,-4.89681 -1.93105,-7.4271 -2.76048,-8.67124 -1.88577,-2.82867 -3.06439,-0.23572 -5.89306,-4.00727 -2.82866,-3.77156 -4.71445,-2.12153 -4.243,-5.65734 0.069,-0.51707 0.62947,-2.76876 0.32243,-4.98099 -0.1489,-1.07268 -1.38955,-2.49118 -1.29092,-3.01888 0.16974,-0.9082 2.17877,2.26606 2.07605,1.38971 -0.17511,-1.49421 -1.79038,-2.49582 -2.01539,-3.61319 -0.14615,-0.72582 1.94088,0.43924 1.44286,-0.18721 -1.45829,-1.83434 -2.53158,-3.78032 -3.0556,-5.27752 -1.65007,-4.71445 -7.37976,-14.95582 -13.74427,-16.8416 -6.3645,-1.88578 -8.61013,-1.22178 -14.37905,-0.88396 -3.8114,0.22318 -7.79232,-0.31957 -12.30742,-0.62679 -3.65095,-0.24842 -12.20772,1.03929 -13.62205,3.63224 -1.41434,2.59296 -0.34253,2.57021 -0.34253,2.57021 0,0 0.58139,-0.20655 0.70839,-0.20834 0.60542,-0.009 1.99136,1.88112 1.99136,1.88112 z"
         id="path3379"
         sodipodi:nodetypes="csssssssscccsssssssssssssssssssssssssssssscsc" />
    </g>
  </g>
</svg>
