<?xml version="1.0" encoding="UTF-8" standalone="no"?>
<svg
   width="900"
   height="400"
   viewBox="0 0 238.12499 105.83333"
   version="1.1"
   id="svg8"
   sodipodi:docname="crowlogo_main_light_color.svg"
   inkscape:version="1.1.2 (0a00cf5339, 2022-02-04, custom)"
   inkscape:export-filename="/home/farook/vaiossd/Pictures/CrowLogo.png"
   inkscape:export-xdpi="324.99619"
   inkscape:export-ydpi="324.99619"
   xmlns:inkscape="http://www.inkscape.org/namespaces/inkscape"
   xmlns:sodipodi="http://sodipodi.sourceforge.net/DTD/sodipodi-0.dtd"
   xmlns="http://www.w3.org/2000/svg"
   xmlns:svg="http://www.w3.org/2000/svg"
   xmlns:rdf="http://www.w3.org/1999/02/22-rdf-syntax-ns#"
   xmlns:cc="http://creativecommons.org/ns#"
   xmlns:dc="http://purl.org/dc/elements/1.1/">
  <defs
     id="defs2" />
  <sodipodi:namedview
     id="base"
     pagecolor="#ffffff"
     bordercolor="#666666"
     borderopacity="1.0"
     inkscape:pageopacity="0"
     inkscape:pageshadow="2"
     inkscape:zoom="0.98994949"
     inkscape:cx="468.71078"
     inkscape:cy="349.51278"
     inkscape:document-units="mm"
     inkscape:current-layer="layer1"
     inkscape:document-rotation="0"
     showgrid="false"
     inkscape:window-width="1272"
     inkscape:window-height="687"
     inkscape:window-x="132"
     inkscape:window-y="46"
     inkscape:window-maximized="0"
     units="px"
     inkscape:pagecheckerboard="0" />
  <metadata
     id="metadata5">
    <rdf:RDF>
      <cc:Work
         rdf:about="">
        <dc:format>image/svg+xml</dc:format>
        <dc:type
           rdf:resource="http://purl.org/dc/dcmitype/StillImage" />
      </cc:Work>
    </rdf:RDF>
  </metadata>
  <g
     inkscape:label="Layer 1"
     inkscape:groupmode="layer"
     id="layer1"
     transform="translate(2.890729,-78.735456)">
    <path
       id="rect51232"
       style="stroke-width:1.621;stroke-linecap:round;stroke-linejoin:round;fill:#e5f2f8;fill-opacity:1"
       d="m 86.263122,129.89227 c -1.679885,0.94306 -0.970661,50.071 -0.970661,50.071 h 8.67359 c 0,0 -1.146978,-23.39877 0.97066,-22.01299 5.738329,3.75514 18.678879,22.04105 18.678879,22.04105 l 10.82099,0.0233 c 0,0 -22.33706,-23.42311 -21.33927,-25.78171 0.99777,-2.35858 13.45284,-3.56535 14.28699,-5.61353 0.83414,-2.04817 0.74681,-7.53026 0.0119,-9.332 -0.73488,-1.80175 -17.951097,-8.50923 -22.459538,-9.39514 -4.508449,-0.88592 -6.875855,-1.00922 -8.67359,0 z m 8.673589,7.89629 c 0.435027,-0.21177 12.515509,4.68197 12.527659,5.49714 0.0113,0.76226 -12.065069,5.41359 -12.527659,5.04327 -0.327731,-0.26235 -0.43502,-10.32863 0,-10.54041 z"
       sodipodi:nodetypes="sccscczzzzszssz" />
    <path
       id="path55748"
       style="stroke-width:1.50035;stroke-linecap:round;stroke-linejoin:round;fill:#e5f2f8;fill-opacity:1"
       d="m 214.40962,132.10711 c 0,0 -6.19646,30.36708 -7.43712,30.33831 -1.22676,-0.0284 -7.40908,-29.27248 -7.40908,-29.27248 l -7.84322,0.0207 c 0,0 -4.25108,28.63573 -6.44505,28.48646 -1.9928,-0.13558 -7.20545,-29.39322 -7.20545,-29.39322 l -7.79639,1.91192 11.03502,45.01483 7.88892,1.48481 c 0,0 5.4369,-26.82435 6.66418,-26.78989 1.22731,0.0345 7.42065,26.61016 7.42065,26.61016 l 7.88891,-1.4848 11.03501,-45.01483 z"
       sodipodi:nodetypes="csccscccczcccc" />
    <path
       id="rect53235"
       style="fill:none;stroke:#e5f2f8;stroke-width:8.65014;stroke-miterlimit:4;stroke-dasharray:none;stroke-opacity:1"
       d="m 128.1657,156.63351 c 0.0252,15.02476 7.0482,20.22602 17.35625,20.23066 10.30804,0.005 17.61679,-6.50768 17.8414,-20.03302 0.2246,-13.52536 -8.11076,-20.48288 -17.43254,-20.41622 -9.32178,0.0666 -17.79031,5.1938 -17.76511,20.21858 z"
       sodipodi:nodetypes="zzzzz" />
    <path
       id="path830"
       style="color:#000000;fill:#e5f2f8;fill-opacity:1;stroke-width:2.52929;-inkscape-stroke:none"
       d="M 211.99219 12.798828 C 195.30397 12.87421 176.31915 14.438946 152.00977 17.78125 C 81.291558 27.504315 46.094636 113.13813 36.595703 192.05859 C 27.096804 270.97883 34.212298 334.16148 58.154297 358.88477 C 82.096292 383.60802 224.23365 392.37353 301.86133 377.94141 L 295.75781 323.46289 C 290.00342 323.81401 283.56761 324.36155 276.63477 325.01367 C 275.97982 325.07528 275.2086 325.15729 274.54492 325.2207 C 280.96673 328.48735 280.5107 330.75704 282.75781 333.31055 C 285.00709 335.86657 285.72297 339.54688 284.49609 339.54688 C 283.26923 339.54688 283.37201 338.93365 282.34961 336.27539 C 281.32722 333.61717 278.46385 333.20796 274.7832 329.52734 C 271.1026 325.84673 272.12504 331.47027 274.47656 335.66211 C 276.82805 339.85398 276.4687 344.89721 275.9082 349.46484 C 275.35597 353.96498 273.96545 350.99752 274.16992 347.82812 C 274.37441 344.65865 273.0457 341.38716 272.63672 339.54688 C 272.22775 337.70636 270.49017 335.6616 270.79688 337.80859 C 271.10361 339.95567 268.95584 339.95653 268.54688 339.44531 C 268.13796 338.93413 268.64927 338.31969 267.93359 335.76367 C 267.39782 333.8501 261.55673 327.88592 259.42188 327.18164 C 258.72199 326.95057 258.35326 326.89083 257.67969 326.88477 C 248.40392 327.81385 238.77428 328.7586 228.82031 329.60938 C 231.66351 332.87449 234.02131 335.10526 235.11523 335.04883 C 239.10257 334.84432 239.61337 336.27608 244.31641 338.52539 C 249.01943 340.77463 246.46395 340.46725 249.83789 343.94336 C 253.21177 347.41954 246.15655 351.30528 247.58789 349.1582 C 249.01925 347.01117 248.81369 346.1927 246.87109 343.63672 C 244.92855 341.08074 237.8747 340.6722 239.10156 341.79688 C 240.32844 342.92147 245.64572 349.36171 246.05469 352.83789 C 246.46364 356.31404 245.95206 359.4846 244.92969 361.22266 C 243.90728 362.96075 236.03384 362.85791 241.24805 361.01758 C 246.46228 359.17729 239.10213 345.27283 239.30664 350.07812 C 239.51112 354.88338 231.94496 356.62193 235.83008 353.55469 C 239.71516 350.48749 234.39847 347.42008 231.74023 344.45508 C 229.08201 341.49019 225.60699 340.8764 224.78906 338.01367 C 224.47504 336.91461 222.84867 333.79484 220.86133 330.24805 C 173.63002 333.90437 124.40937 333.97571 107.19336 313.61719 C 79.756771 281.17255 84.542125 256.47921 93.064453 203.83984 C 101.58678 151.20044 137.54325 81.692104 181.70898 76.78125 C 225.87473 71.870408 273.51228 76.241858 288.97656 81.365234 L 303.52734 26.669922 C 267.3416 17.942023 243.85151 12.654918 211.99219 12.798828 z M 220.86133 330.24805 C 223.5206 330.04218 226.17981 329.83506 228.82031 329.60938 C 228.80712 329.59422 228.79446 329.57965 228.78125 329.56445 L 220.81641 330.16797 C 220.83166 330.19517 220.84612 330.2209 220.86133 330.24805 z M 257.67969 326.88477 C 263.5132 326.30046 269.1892 325.7324 274.54492 325.2207 C 274.53879 325.21758 274.53349 325.21406 274.52734 325.21094 L 257.58984 326.88281 C 257.6216 326.88288 257.64925 326.88449 257.67969 326.88477 z "
       transform="matrix(0.26458333,0,0,0.26458333,-2.890729,78.735456)" />
    <path
       id="path15574"
       style="fill:#e5f2f8;fill-opacity:1;stroke:none;stroke-width:0.56956px;stroke-linecap:butt;stroke-linejoin:miter;stroke-opacity:1"
       d="M 196.81836 123.53711 C 190.01281 123.44451 176.92306 125.65342 174.64062 129.83789 C 172.20602 134.30132 174.05078 134.26367 174.05078 134.26367 C 174.05078 134.26367 174.41955 134.13519 174.75977 134.03125 C 174.84964 133.9326 174.85258 133.822 174.88867 133.74414 C 174.99733 133.50981 175.25731 133.02491 176.16211 132.48047 C 177.34145 131.77082 179.4617 131.15819 182.45312 131.3418 C 185.4368 131.5251 192.03003 132.50625 197.90039 133.48242 C 203.77129 134.45864 208.76758 135.26758 208.76758 135.26758 C 208.93747 135.29026 209.31148 135.6736 209.0918 136.2832 C 209.06988 136.40679 208.84615 136.27595 208.28125 135.9082 C 208.03127 135.82165 203.69519 134.9053 197.82812 133.92969 C 191.96107 132.95408 185.34664 131.92975 182.42383 131.79688 C 179.50905 131.66421 177.68533 132.24179 176.6582 133 C 176.07701 133.42901 175.7951 133.80884 175.81055 133.95703 C 175.82604 134.10519 178.69922 137.14258 178.69922 137.14258 C 178.69922 137.14258 196.57391 140.43159 203.19531 143.20508 C 204.15965 143.609 212.13426 154.746 212.85352 161.6543 C 213.57173 168.55227 213.18802 173.25675 210.34766 177.31445 C 207.50727 181.37208 198.98691 192.32806 191.27734 197.19727 C 183.56779 202.06651 162.46675 282.81432 165.71289 289.30664 C 168.95904 295.79889 171.80031 289.71183 171.39453 293.76953 C 170.98877 297.82716 166.93067 313.24596 166.11914 319.73828 C 165.3076 326.23056 166.9302 342.46231 165.71289 346.92578 C 164.4956 351.38925 160.43945 364.77734 160.43945 364.77734 L 202.63867 366.80664 L 212.37695 337.5918 C 212.37695 337.5918 214.79228 330.95621 217.33594 324.14844 C 218.51841 326.13857 219.75412 328.27441 220.875 330.27539 L 228.82031 329.60938 C 225.99567 326.36928 222.69019 322.10525 219.66406 318.04297 C 221.67364 312.7967 223.53872 308.0689 224.14453 307.16016 C 225.16091 305.63555 233.65577 304.58775 242.15625 302.92188 L 250.75781 312.55664 C 250.75781 312.55664 257.8122 317.66794 256.38086 322.98438 C 254.9495 328.30085 251.26758 330.24414 251.26758 330.24414 C 251.26758 330.24414 251.78017 331.16406 253.41602 331.16406 C 255.05186 331.16406 254.70313 327.21484 254.70312 327.21484 L 274.54492 325.2207 C 268.1038 321.94903 264.0473 318.38312 257.19727 312.14648 C 254.05973 309.28994 250.84574 305.1739 248.27344 301.54492 C 251.09879 300.83022 253.744 300.02579 255.79492 299.04492 C 257.25451 298.34684 264.28697 291.02433 264.37891 295.82422 C 264.45998 300.05782 261.3294 311.37981 262.49219 311.64453 C 263.49442 311.87281 269.99114 292.18102 270.86719 293.74805 C 272.25921 296.23804 269.62161 307.69575 270.93164 307.14258 C 272.03597 306.67626 279.85318 284.60023 281.35742 282.00195 C 282.36947 280.25388 286.47084 294.4784 288.17578 291.02539 C 289.29934 288.74985 288.10349 267.4473 288.83398 269.0957 C 290.13405 272.0296 291.5425 269.10629 291.41992 267.66992 C 290.9694 262.38977 293.32372 272.5631 293.81055 271.74219 C 294.40225 270.74439 293.56791 263.91677 294.12305 262.8418 C 294.48977 262.13181 295.26801 262.94493 295.60547 262.17383 C 295.87899 261.54866 294.73298 253.02506 294.99609 252.42578 C 296.37761 249.27929 299.12828 248.43105 299.61719 245.88867 C 300.66301 240.45035 301.93063 228.07556 293.07617 216.96484 C 292.4909 216.23048 293.00141 215.3886 292.69531 212.90039 C 291.93124 206.69153 289.5352 203.23933 288.10742 201.09766 C 284.86128 196.22845 284.19734 198.41415 279.32812 191.92188 C 274.45894 185.42963 271.21385 188.27007 272.02539 182.18359 C 272.14418 181.29355 273.10863 177.41747 272.58008 173.60938 C 272.32375 171.76289 270.18765 169.32048 270.35742 168.41211 C 270.64962 166.84875 274.10845 172.31321 273.93164 170.80469 C 273.63019 168.23257 270.85022 166.50739 270.46289 164.58398 C 270.21133 163.33455 273.80261 165.34205 272.94531 164.26367 C 270.43504 161.10607 268.58759 157.75499 267.68555 155.17773 C 264.84515 147.06241 254.98309 129.43362 244.02734 126.1875 C 233.07165 122.94134 229.20587 124.0845 219.27539 124.66602 C 217.34815 124.77902 213.86448 125.84328 212.97461 125.81641 C 210.54046 125.74308 203.57899 123.96142 198.08984 123.58789 C 197.69705 123.56143 197.27207 123.54353 196.81836 123.53711 z M 226.71289 131.39648 C 227.3081 131.3905 227.95876 131.44031 228.57031 131.7168 C 229.75373 132.25187 230.54208 133.56754 230.58398 135.08984 C 230.6003 135.69411 230.28648 136.18431 229.92969 136.54102 C 229.5729 136.89772 229.14117 137.16987 228.69141 137.39648 C 227.79187 137.8497 226.88335 138.12733 226.14844 138.14453 L 226.14648 138.14453 C 225.56852 138.15786 225.10524 137.98142 224.68945 137.7832 C 224.62955 137.74996 223.69512 137.30907 223.44727 137.04297 L 223.44727 137.04102 C 222.76159 136.579 222.62034 135.89259 222.52734 135.25 C 222.43429 134.60696 222.36073 134.01739 222.78516 133.38086 C 223.04876 132.9855 223.42748 132.63391 223.87109 132.29297 C 224.3147 131.95203 224.76538 131.63768 225.35938 131.52734 C 225.71139 131.46158 226.18854 131.40148 226.71289 131.39648 z M 227.12891 133.00586 C 227.16261 133.03933 227.192 133.07583 227.2168 133.11523 C 227.52456 133.62282 227.04552 134.47773 226.14648 135.02539 C 225.42374 135.46591 224.6237 135.5852 224.18164 135.31836 C 224.27219 135.57689 224.23597 135.54064 224.33789 135.7168 C 225.01779 136.17408 225.47049 136.56558 226.11133 136.55078 C 226.34499 136.54492 227.27924 136.32301 227.97461 135.97266 C 228.32263 135.79731 228.62791 135.58885 228.80273 135.41406 C 228.97753 135.23928 228.99058 135.14571 228.99023 135.13281 C 228.96415 134.18648 228.35417 133.36891 227.91406 133.16992 C 227.7362 133.08946 227.44681 133.03176 227.12891 133.00586 z "
       transform="matrix(0.26458333,0,0,0.26458333,-2.890729,78.735456)" />
    <path
       style="fill:none;stroke:none;stroke-width:0.14952px;stroke-linecap:butt;stroke-linejoin:miter;stroke-opacity:1"
       d="m 44.389921,115.02116 c 0,0 4.831171,0.75152 6.119483,2.1472 1.288312,1.39567 2.791337,2.57662 2.57662,4.40172 -0.214721,1.82511 0.429438,3.00606 -0.322074,4.07967 -0.751517,1.07358 -3.006063,3.97228 -5.045887,5.26059 -2.039829,1.28831 -7.622516,22.65282 -6.763641,24.37057 0.858874,1.71774 1.610396,0.10735 1.503033,1.18095 -0.107358,1.07358 -1.180954,5.15325 -1.395671,6.87099 -0.214721,1.71775 0.214717,6.01212 -0.107362,7.19307 -0.322075,1.18096 -1.395667,4.72381 -1.395667,4.72381 l 11.165366,0.5368 2.57662,-7.72987 c 0,0 2.683983,-7.40778 3.11342,-8.05194 0.429438,-0.64417 5.904767,-0.96624 8.374029,-2.14719 0.386179,-0.1847 2.247326,-2.12188 2.271656,-0.85191 0.02145,1.12014 -1.801065,5.44911 -1.437061,5.54899 0.375712,0.1031 2.349547,-4.82589 2.581334,-4.41129 0.368312,0.65882 -0.247513,3.75415 0.248173,3.39069 0.738355,-0.5414 2.701532,-7.49811 3.099534,-8.18557 0.267767,-0.46251 1.352722,3.30089 1.803821,2.38728 0.297271,-0.60206 -0.01908,-6.23809 0.174191,-5.80195 0.343972,0.77626 0.716747,0.003 0.684315,-0.3771 -0.1192,-1.39703 0.503735,1.29404 0.63254,1.07683 0.15656,-0.264 -0.06434,-2.07033 0.08254,-2.35476 0.09702,-0.18785 0.302732,0.0277 0.392023,-0.17632 0.07237,-0.16542 -0.230316,-2.42104 -0.160696,-2.5796 0.36552,-0.83251 1.093075,-1.05669 1.222427,-1.72935 0.276712,-1.43889 0.612072,-4.7133 -1.730671,-7.65301 -0.154852,-0.1943 0.363352,-0.6248 0.303944,-0.85138 -0.584768,-2.23024 -0.879494,-3.38266 -1.257256,-3.9493 -0.85887,-1.28831 -1.39567,-0.10736 -2.683983,-1.8251 -1.288308,-1.71775 -2.147187,-0.96625 -1.932466,-2.57663 0.03143,-0.2355 0.286691,-1.26102 0.14685,-2.26858 -0.06782,-0.48855 -0.632868,-1.1346 -0.587947,-1.37494 0.07731,-0.41364 0.992317,1.03207 0.945533,0.63294 -0.07975,-0.68054 -0.815425,-1.13672 -0.917906,-1.64562 -0.06656,-0.33058 0.88397,0.20005 0.657148,-0.0853 -0.664175,-0.83544 -1.153003,-1.72174 -1.391667,-2.40363 -0.751521,-2.14719 -3.361098,-6.8116 -6.259802,-7.67048 -2.898699,-0.85887 -3.921467,-0.55646 -6.548911,-0.4026 -1.735895,0.10165 -3.548997,-0.14554 -5.605391,-0.28547 -1.662818,-0.11314 -5.559983,0.47335 -6.204137,1.6543 -0.644159,1.18096 -0.156005,1.1706 -0.156005,1.1706 0,0 0.264793,-0.0941 0.322635,-0.0949 0.275738,-0.004 0.906961,0.85675 0.906961,0.85675 z"
       id="path3379"
       sodipodi:nodetypes="csssssssscccsssssssssssssssssssssssssssssscsc" />
  </g>
</svg>
