<?xml version="1.0" encoding="UTF-8" standalone="no"?>
<svg
   width="95mm"
   height="95mm"
   viewBox="0 0 95 95"
   version="1.1"
   id="svg8"
   sodipodi:docname="favicon.svg"
   inkscape:version="1.1 (c4e8f9ed74, 2021-05-24)"
   xmlns:inkscape="http://www.inkscape.org/namespaces/inkscape"
   xmlns:sodipodi="http://sodipodi.sourceforge.net/DTD/sodipodi-0.dtd"
   xmlns="http://www.w3.org/2000/svg"
   xmlns:svg="http://www.w3.org/2000/svg"
   xmlns:rdf="http://www.w3.org/1999/02/22-rdf-syntax-ns#"
   xmlns:cc="http://creativecommons.org/ns#"
   xmlns:dc="http://purl.org/dc/elements/1.1/">
  <defs
     id="defs2" />
  <sodipodi:namedview
     id="base"
     pagecolor="#ffffff"
     bordercolor="#666666"
     borderopacity="1.0"
     inkscape:pageopacity="0"
     inkscape:pageshadow="2"
     inkscape:zoom="1.979899"
     inkscape:cx="148.74496"
     inkscape:cy="185.86807"
     inkscape:document-units="mm"
     inkscape:current-layer="layer1"
     inkscape:document-rotation="0"
     showgrid="false"
     inkscape:window-width="1920"
     inkscape:window-height="1007"
     inkscape:window-x="0"
     inkscape:window-y="0"
     inkscape:window-maximized="1"
     inkscape:pagecheckerboard="0" />
  <metadata
     id="metadata5">
    <rdf:RDF>
      <cc:Work
         rdf:about="">
        <dc:format>image/svg+xml</dc:format>
        <dc:type
           rdf:resource="http://purl.org/dc/dcmitype/StillImage" />
      </cc:Work>
    </rdf:RDF>
  </metadata>
  <g
     inkscape:label="Layer 1"
     inkscape:groupmode="layer"
     id="layer1"
     transform="translate(-52.906909,-78.735456)">
    <path
       style="color:#000000;fill:#ffffff;stroke-width:0.633931;-inkscape-stroke:none;fill-opacity:1"
       d="m 131.60351,157.53369 c -1.44225,0.088 -3.05509,0.225 -4.79271,0.38845 -14.0779,1.32417 -36.347368,4.38223 -42.468437,-2.85614 -6.876591,-8.13179 -5.676856,-14.32107 -3.540856,-27.51438 2.136,-13.19332 11.147817,-30.61464 22.217343,-31.845476 11.06952,-1.230833 23.00902,-0.134959 26.88493,1.149142 l 3.64693,-13.70856 c -13.8201,-3.333369 -20.25092,-4.6647 -37.975455,-2.227752 -17.724509,2.436948 -26.546029,23.899856 -28.926801,43.680146 -2.380764,19.78024 -0.597414,35.6157 5.403308,41.81224 6.000721,6.19654 41.625298,8.3939 61.081568,4.77669 z"
       id="path830"
       sodipodi:nodetypes="csszzcczzzcc" />
    <path
       style="fill:#ffffff;fill-opacity:1;stroke:none;stroke-width:0.142752px;stroke-linecap:butt;stroke-linejoin:miter;stroke-opacity:1"
       d="m 110.20292,152.92929 -1.25562,1.07624 c 0,0 1.30687,1.23 1.76812,1.76812 0.46125,0.53812 2.89562,4.68937 3.10062,5.40686 0.205,0.7175 1.07625,0.87126 1.7425,1.61437 0.66625,0.74313 1.99874,1.51187 1.025,2.28062 -0.97375,0.76876 0.9225,0.33314 0.87124,-0.87124 -0.0512,-1.20438 1.79375,2.28063 0.48688,2.74187 -1.30687,0.46125 0.66624,0.48687 0.92249,0.0512 0.25625,-0.43562 0.38438,-1.22999 0.28188,-2.10124 -0.1025,-0.87126 -1.435,-2.48563 -1.7425,-2.76749 -0.3075,-0.28189 1.46062,-0.17938 1.94749,0.46124 0.48689,0.64062 0.53813,0.84562 0.17938,1.38374 -0.35875,0.53814 1.40937,-0.43562 0.56376,-1.30687 -0.84563,-0.87124 -0.20501,-0.79437 -1.38376,-1.35811 -1.17875,-0.56376 -1.30687,-0.92251 -2.30624,-0.87125 -0.99937,0.0513 -6.20124,-7.50811 -6.20124,-7.50811 z"
       id="path15574" />
    <path
       style="fill:#fefefe;fill-opacity:1;stroke:none;stroke-width:0.142752px;stroke-linecap:butt;stroke-linejoin:miter;stroke-opacity:1"
       d="m 118.4029,150.05928 -1.48624,0.9225 3.40812,3.81813 c 0,0 1.76812,1.28124 1.40937,2.61373 -0.35875,1.3325 -1.28125,1.81938 -1.28125,1.81938 0,0 0.12812,0.23062 0.53812,0.23062 0.41,0 0.9225,-1.33249 1.66563,-0.92249 0.74312,0.41 1.79374,1.43498 1.97312,2.07561 0.17937,0.64063 0.0513,0.79438 0.15375,0.9225 0.1025,0.12813 0.64062,0.12813 0.56374,-0.41 -0.0769,-0.53812 0.35875,-0.0256 0.46126,0.43562 0.1025,0.46125 0.43562,1.28125 0.38436,2.07562 -0.0512,0.79437 0.46126,1.56313 0.43564,0.41 -0.0256,-1.15311 0.23062,-2.40873 -0.35875,-3.45936 -0.58937,-1.05063 -0.84563,-2.45999 0.0769,-1.5375 0.9225,0.92249 1.64,1.02501 1.89625,1.69124 0.25625,0.66626 0.23062,0.82 0.53812,0.82 0.3075,0 0.12812,-0.92249 -0.43562,-1.56313 -0.56375,-0.64061 -0.58938,-1.28124 -2.20375,-2.10123 -1.61437,-0.82 -2.48562,-1.64 -4.20249,-3.20312 -1.71688,-1.56312 -3.53625,-4.63812 -3.53625,-4.63812 z"
       id="path15576" />
    <path
       style="fill:#010101;fill-opacity:1;stroke:none;stroke-width:0.142752px;stroke-linecap:butt;stroke-linejoin:miter;stroke-opacity:1"
       d="m 112.82046,159.21405 c 0.5033,0.8974 0.91627,1.68889 0.99558,1.96646 0.205,0.7175 1.07625,0.87126 1.7425,1.61437 0.66625,0.74313 1.99874,1.51187 1.025,2.28062 -0.97375,0.76876 0.9225,0.33314 0.87124,-0.87124 -0.0512,-1.20438 1.79375,2.28063 0.48688,2.74187 -1.30687,0.46125 0.66624,0.48687 0.92249,0.0512 0.25625,-0.43562 0.38438,-1.22999 0.28188,-2.10124 -0.1025,-0.87126 -1.435,-2.48563 -1.7425,-2.76749 -0.3075,-0.28189 1.46062,-0.17938 1.94749,0.46124 0.48689,0.64062 0.53813,0.84562 0.17938,1.38374 -0.35875,0.53814 1.40937,-0.43562 0.56376,-1.30687 -0.84563,-0.87124 -0.20501,-0.79437 -1.38376,-1.35811 -1.17875,-0.56376 -1.30687,-0.92251 -2.30624,-0.87125 -0.27545,0.0142 -0.87016,-0.54991 -1.58721,-1.37448 z"
       id="path16765"
       sodipodi:nodetypes="cssssssssssssscc" />
    <path
       style="fill:#000000;fill-opacity:1;stroke:none;stroke-width:0.142752px;stroke-linecap:butt;stroke-linejoin:miter;stroke-opacity:1"
       d="m 122.03733,158.3908 c 0.18411,3.7e-4 0.27569,0.0141 0.45904,0.0746 0.53507,0.17652 1.99911,1.67175 2.1334,2.15136 0.17937,0.64063 0.0513,0.79438 0.15375,0.92249 0.1025,0.12814 0.64062,0.12814 0.56374,-0.40999 -0.0769,-0.53812 0.35875,-0.0256 0.46126,0.43562 0.1025,0.46124 0.43562,1.28124 0.38436,2.07562 -0.0512,0.79437 0.29723,1.53789 0.43564,0.41 0.14048,-1.14481 0.23062,-2.40873 -0.35875,-3.45936 -0.58937,-1.05063 -0.84563,-2.46 0.0769,-1.5375 0.9225,0.92249 1.64,1.025 1.89625,1.69124 0.25625,0.66626 0.23062,0.82 0.53812,0.82 0.3075,0 0.12812,-0.9225 -0.43562,-1.56313 -0.56375,-0.64061 -0.44847,-1.2099 -2.06284,-2.02989 z"
       id="path16767"
       sodipodi:nodetypes="csssssssssssscc" />
    <path
       id="path7288"
       style="fill:#ffffff;fill-opacity:1;stroke:none;stroke-width:0.141638px;stroke-linecap:butt;stroke-linejoin:miter;stroke-opacity:1"
       d="m 106.80565,107.42503 c -1.70572,-0.0232 -4.98637,0.53061 -5.55843,1.57939 -0.6102,1.1187 -0.14759,1.10896 -0.14759,1.10896 0,0 0.0922,-0.0321 0.17747,-0.0582 0.0225,-0.0247 0.0235,-0.0525 0.0326,-0.072 0.0272,-0.0588 0.0921,-0.18036 0.31882,-0.31681 0.29558,-0.17787 0.82696,-0.33118 1.57672,-0.28516 h 2.3e-4 c 0.74781,0.046 2.40024,0.29154 3.87156,0.5362 1.47146,0.24468 2.72381,0.44746 2.72381,0.44746 0.0426,0.005 0.13622,0.10183 0.0812,0.25462 -0.006,0.031 -0.0615,-0.001 -0.20311,-0.0941 -0.0626,-0.0217 -1.14942,-0.25133 -2.61991,-0.49585 -1.4705,-0.24452 -3.12831,-0.50133 -3.86087,-0.53463 -0.73055,-0.0332 -1.18774,0.11185 -1.44518,0.30187 -0.14567,0.10753 -0.21612,0.20254 -0.21225,0.23968 0.004,0.0371 0.7237,0.79861 0.7237,0.79861 0,0 4.48033,0.82429 6.13989,1.51942 0.2417,0.10124 2.24032,2.89235 2.42059,4.62381 0.18001,1.72889 0.0841,2.90807 -0.62783,3.92508 -0.71191,1.01699 -2.84758,3.7628 -4.77988,4.9832 -1.93229,1.22041 -7.220799,21.45885 -6.4072,23.08605 0.8136,1.62719 1.52548,0.10155 1.42377,1.11855 -0.1017,1.01699 -1.118707,4.88167 -1.322104,6.50887 -0.203401,1.6272 0.203435,5.69517 -0.101666,6.81387 -0.305096,1.1187 -1.322107,4.47465 -1.322107,4.47465 l 10.576857,0.50856 2.44066,-7.32243 c 0,0 2.54264,-7.01721 2.94944,-7.62742 0.4068,-0.61021 5.59354,-0.91529 7.93264,-2.03399 0.36583,-0.17496 2.12867,-2.01011 2.15171,-0.80709 0.0203,1.0611 -0.76466,3.89871 -0.47323,3.96507 0.2512,0.0572 1.87988,-4.87819 2.09945,-4.48544 0.34889,0.62408 -0.31248,3.49592 0.0159,3.35728 0.27679,-0.11687 2.23617,-5.64993 2.61319,-6.30114 0.25366,-0.43813 1.28139,3.12685 1.70871,2.2614 0.2816,-0.57033 -0.0181,-5.90937 0.16498,-5.49622 0.32585,0.73534 0.67907,0.003 0.64835,-0.35717 -0.11292,-1.32339 0.47706,1.22598 0.59907,1.02023 0.1483,-0.25009 -0.0609,-1.96121 0.0783,-2.23064 0.0919,-0.17795 0.28686,0.0261 0.37144,-0.16721 0.0686,-0.1567 -0.21823,-2.29336 -0.15228,-2.44356 0.34625,-0.78862 1.03548,-1.00105 1.15801,-1.63825 0.26212,-1.36304 0.57988,-4.46478 -1.63936,-7.24952 -0.14669,-0.18406 -0.0189,-0.39481 -0.0956,-1.01845 -0.1915,-1.55615 -0.79214,-2.42158 -1.14999,-2.95835 -0.8136,-1.2204 -0.97969,-0.67256 -2.20009,-2.29975 -1.2204,-1.6272 -2.03384,-0.91518 -1.83044,-2.44066 0.0298,-0.22309 0.27159,-1.19459 0.13912,-2.14904 -0.0642,-0.46279 -0.59971,-1.07482 -0.55716,-1.30249 0.0732,-0.39183 0.94014,0.97761 0.89582,0.59952 -0.0756,-0.64466 -0.77243,-1.07681 -0.86951,-1.55888 -0.0631,-0.31315 0.83735,0.18957 0.62248,-0.0807 -0.62916,-0.7914 -1.09223,-1.63106 -1.31831,-2.27701 -0.71191,-2.034 -3.18396,-6.45242 -5.92987,-7.26602 -2.74589,-0.8136 -3.71471,-0.52722 -6.20364,-0.38147 -0.48304,0.0283 -1.35592,0.29523 -1.57895,0.2885 -0.61009,-0.0184 -2.35511,-0.4651 -3.73089,-0.55872 -0.0984,-0.007 -0.2051,-0.0109 -0.31882,-0.0125 z"
       sodipodi:nodetypes="ssccssssscccssszcsssssssscccssssssssscsssssscsscssssssscssss" />
    <path
       style="fill:none;fill-opacity:1;stroke:#000000;stroke-width:0.399531;stroke-linecap:butt;stroke-linejoin:miter;stroke-miterlimit:4;stroke-dasharray:none;stroke-dashoffset:0;stroke-opacity:1"
       d="m 113.59181,110.64385 c 0.15329,0.1031 0.31775,0.24805 0.5602,0.24247 0.24248,-0.005 0.92532,-0.25083 0.91696,-0.56021 -0.009,-0.30937 -0.18393,-0.57691 -0.38739,-0.6689 -0.20345,-0.092 -0.52168,-0.0638 -0.68587,-0.0331 -0.16421,0.0305 -0.43175,0.25342 -0.51537,0.37884 -0.0836,0.12539 -0.0418,0.53789 0.11147,0.64101 z"
       id="path19231"
       sodipodi:nodetypes="scssccs" />
    <ellipse
       style="fill:#000000;fill-opacity:1;stroke:none;stroke-width:0.247173;stroke-linecap:round;stroke-miterlimit:4;stroke-dasharray:none;stroke-dashoffset:0"
       id="path871"
       cx="40.080688"
       cy="153.32861"
       rx="0.47806513"
       ry="0.26956642"
       transform="rotate(-31.358267)" />
    <path
       style="fill:none;stroke:none;stroke-width:0.141638px;stroke-linecap:butt;stroke-linejoin:miter;stroke-opacity:1"
       d="m 102.26433,110.83508 c 0,0 4.57649,0.7119 5.79689,2.03401 1.2204,1.3221 2.64419,2.44079 2.44079,4.16968 -0.2034,1.7289 0.4068,2.8476 -0.30509,3.86461 -0.7119,1.01698 -2.8476,3.76288 -4.77989,4.98328 -1.9323,1.2204 -7.220698,21.45867 -6.407099,23.08587 0.813599,1.62719 1.525499,0.10169 1.423799,1.1187 -0.1017,1.01699 -1.118698,4.88159 -1.322096,6.50878 -0.203402,1.6272 0.203398,5.69519 -0.101703,6.81389 -0.305097,1.1187 -1.322093,4.47479 -1.322093,4.47479 l 10.576782,0.5085 2.44079,-7.32239 c 0,0 2.5425,-7.01728 2.9493,-7.62748 0.4068,-0.61021 5.59349,-0.9153 7.93259,-2.034 0.36582,-0.17496 2.12886,-2.01002 2.1519,-0.807 0.0203,1.06109 -1.70612,5.16186 -1.3613,5.25648 0.3559,0.0977 2.22569,-4.57149 2.44526,-4.17875 0.34889,0.62408 -0.23447,3.55624 0.23509,3.21194 0.69943,-0.51286 2.55912,-7.10284 2.93614,-7.75406 0.25365,-0.43813 1.28141,3.12689 1.70873,2.26144 0.2816,-0.57033 -0.0181,-5.90925 0.16501,-5.49611 0.32584,0.73534 0.67896,0.003 0.64824,-0.35721 -0.11292,-1.32339 0.47718,1.22581 0.5992,1.02006 0.1483,-0.25009 -0.0609,-1.9612 0.0782,-2.23063 0.0919,-0.17795 0.28677,0.0263 0.37136,-0.16703 0.0686,-0.15669 -0.21818,-2.29341 -0.15223,-2.44361 0.34625,-0.78862 1.03546,-1.00099 1.15799,-1.63819 0.26212,-1.36304 0.57981,-4.46484 -1.63944,-7.24958 -0.14669,-0.18406 0.3442,-0.59186 0.28792,-0.8065 -0.55394,-2.11267 -0.83313,-3.20434 -1.19098,-3.74111 -0.81359,-1.2204 -1.3221,-0.1017 -2.54249,-1.72889 -1.2204,-1.6272 -2.034,-0.91531 -1.8306,-2.4408 0.0298,-0.22308 0.27158,-1.19455 0.13911,-2.14899 -0.0642,-0.4628 -0.59951,-1.0748 -0.55695,-1.30247 0.0732,-0.39183 0.94,0.97767 0.89568,0.59958 -0.0755,-0.64466 -0.77244,-1.07679 -0.86951,-1.55887 -0.0631,-0.31315 0.83737,0.1895 0.6225,-0.0808 -0.62916,-0.79141 -1.09222,-1.63098 -1.3183,-2.27693 -0.71191,-2.034 -3.18392,-6.45253 -5.92982,-7.26612 -2.74589,-0.8136 -3.71474,-0.52713 -6.20368,-0.38138 -1.64439,0.0963 -3.36191,-0.13787 -5.3099,-0.27042 -1.57517,-0.10718 -5.26689,0.44839 -5.87709,1.56709 -0.6102,1.1187 -0.14778,1.10889 -0.14778,1.10889 0,0 0.25083,-0.0891 0.30563,-0.0899 0.2612,-0.004 0.85915,0.81159 0.85915,0.81159 z"
       id="path3379"
       sodipodi:nodetypes="csssssssscccsssssssssssssssssssssssssssssscsc" />
  </g>
</svg>
